<?xml version="1.0" encoding="UTF-8" standalone="no"?>
<!-- Created with Inkscape (http://www.inkscape.org/) -->

<svg
   xmlns:dc="http://purl.org/dc/elements/1.1/"
   xmlns:cc="http://creativecommons.org/ns#"
   xmlns:rdf="http://www.w3.org/1999/02/22-rdf-syntax-ns#"
   xmlns:svg="http://www.w3.org/2000/svg"
   xmlns="http://www.w3.org/2000/svg"
   xmlns:sodipodi="http://sodipodi.sourceforge.net/DTD/sodipodi-0.dtd"
   xmlns:inkscape="http://www.inkscape.org/namespaces/inkscape"
   width="210mm"
   height="297mm"
   viewBox="0 0 744.09448819 1052.3622047"
   id="svg2"
   version="1.1"
   inkscape:version="0.91 r13725"
   sodipodi:docname="LOGO_RICH.svg">
  <defs
     id="defs4" />
  <sodipodi:namedview
     id="base"
     pagecolor="#ffffff"
     bordercolor="#666666"
     borderopacity="1.0"
     inkscape:pageopacity="0.0"
     inkscape:pageshadow="2"
     inkscape:zoom="1.2449664"
     inkscape:cx="207.78299"
     inkscape:cy="807.14286"
     inkscape:document-units="px"
     inkscape:current-layer="layer1"
     showgrid="false"
     inkscape:window-width="1366"
     inkscape:window-height="705"
     inkscape:window-x="-8"
     inkscape:window-y="-8"
     inkscape:window-maximized="1" />
  <metadata
     id="metadata7">
    <rdf:RDF>
      <cc:Work
         rdf:about="">
        <dc:format>image/svg+xml</dc:format>
        <dc:type
           rdf:resource="http://purl.org/dc/dcmitype/StillImage" />
        <dc:title></dc:title>
      </cc:Work>
    </rdf:RDF>
  </metadata>
  <g
     inkscape:label="Capa 1"
     inkscape:groupmode="layer"
     id="layer1">
    <path
       style="font-style:normal;font-weight:normal;font-size:110.3639679px;line-height:125%;font-family:sans-serif;letter-spacing:0px;word-spacing:0px;fill:#ff2a2a;fill-opacity:1;stroke:none;stroke-width:1px;stroke-linecap:butt;stroke-linejoin:miter;stroke-opacity:1;"
       d="M 272.80859 164.89844 C 266.91677 164.89844 261.54529 165.81427 256.69531 167.64648 C 254.61076 168.43986 252.66559 169.39872 250.84375 170.50195 C 255.35986 168.97021 260.30626 168.19336 265.69336 168.19336 C 270.00445 168.19336 274.2971 168.71597 278.57227 169.75781 C 282.88336 170.79966 287.66304 172.63132 292.9082 175.25391 L 292.9082 180.01758 C 295.00153 181.32566 297.10319 182.85443 299.21289 184.62109 L 300.02148 184.62109 L 300.02148 171.95703 C 294.77632 169.33445 289.99859 167.50278 285.6875 166.46094 C 281.41233 165.41909 277.11969 164.89844 272.80859 164.89844 z M 114.75195 166.35352 L 114.75195 169.64844 L 130.10938 169.64844 C 134.95935 169.64844 139.00106 169.97248 142.23438 170.61914 C 145.46769 171.22988 148.37819 172.34428 150.96484 173.96094 C 153.87483 175.79315 156.13725 178.1099 157.75391 180.91211 C 159.40649 183.67839 160.23438 187.19944 160.23438 191.47461 C 160.23438 197.25866 158.77913 202.10753 155.86914 206.02344 C 152.95915 209.90342 148.95302 212.83268 143.85156 214.80859 L 171.19531 246.59375 L 180.98047 246.59375 L 180.98047 246.40625 L 150.96484 211.51172 C 156.0663 209.5358 160.07243 206.6085 162.98242 202.72852 C 165.89241 198.81261 167.34766 193.96178 167.34766 188.17773 C 167.34766 183.90257 166.52173 180.38152 164.86914 177.61523 C 163.25248 174.81302 160.98811 172.49628 158.07812 170.66406 C 155.49147 169.0474 152.58293 167.93496 149.34961 167.32422 C 146.11629 166.67755 142.07459 166.35352 137.22461 166.35352 L 114.75195 166.35352 z M 188.0957 166.35352 L 188.0957 169.64844 L 212.66797 169.64844 L 212.66797 174.54492 L 219.78125 174.54492 L 219.78125 166.35352 L 188.0957 166.35352 z M 315.21875 166.35352 L 315.21875 169.64844 L 318.77344 169.64844 L 318.77344 201.11914 L 358.8125 201.11914 L 358.8125 197.82422 L 325.88867 197.82422 L 325.88867 166.35352 L 315.21875 166.35352 z M 365.92773 166.35352 L 365.92773 169.64844 L 369.48242 169.64844 L 369.48242 246.59375 L 376.59766 246.59375 L 376.59766 166.35352 L 365.92773 166.35352 z M 202.1582 177.83984 L 202.1582 241.69922 L 212.66797 241.69922 L 212.66797 246.59375 L 219.78125 246.59375 L 219.78125 238.40234 L 209.27344 238.40234 L 209.27344 177.83984 L 202.1582 177.83984 z M 256.6875 178.38086 C 255.76422 178.64001 254.86761 178.94216 254 179.29492 C 250.76668 180.58825 247.87495 182.61848 245.32422 185.38477 C 242.84534 188.0792 240.90501 191.49158 239.50391 195.62305 C 238.13873 199.71858 237.45508 204.46074 237.45508 209.84961 C 237.45508 215.48996 238.20987 220.34078 239.71875 224.40039 C 241.26356 228.46 243.23946 231.76568 245.64648 234.31641 C 248.16129 236.97491 251.09054 238.95081 254.43164 240.24414 C 257.80866 241.50154 261.36528 242.12891 265.10156 242.12891 C 270.23895 242.12891 275.05225 241.24864 279.54297 239.48828 C 281.4511 238.74029 283.30502 237.82362 285.10938 236.75781 C 281.06504 238.13988 276.76688 238.83398 272.21484 238.83398 C 268.47856 238.83398 264.92194 238.20467 261.54492 236.94727 C 258.20383 235.65394 255.27652 233.67804 252.76172 231.01953 C 250.35469 228.4688 248.37879 225.16313 246.83398 221.10352 C 245.3251 217.0439 244.57031 212.19503 244.57031 206.55469 C 244.57031 201.16582 245.25201 196.42366 246.61719 192.32812 C 248.01829 188.19666 249.95862 184.78428 252.4375 182.08984 C 253.76155 180.6539 255.17952 179.41991 256.6875 178.38086 z M 118.30859 178.81055 L 118.30859 209.0957 L 129.08594 209.0957 C 132.46296 209.0957 135.40902 208.80723 137.92383 208.23242 C 140.31385 207.65199 142.35782 206.61205 144.06641 205.12305 C 141.76861 205.56477 139.16156 205.80078 136.20117 205.80078 L 125.42188 205.80078 L 125.42188 178.81055 L 118.30859 178.81055 z M 318.77344 210.60547 L 318.77344 246.59375 L 325.88867 246.59375 L 325.88867 210.60547 L 318.77344 210.60547 z M 118.30859 217.98633 L 118.30859 246.59375 L 125.42188 246.59375 L 125.42188 217.98633 L 118.30859 217.98633 z M 299.26758 228.27148 C 297.22674 230.10636 295.10516 231.69599 292.9082 233.05273 L 292.9082 243.94922 C 293.52999 243.69579 294.11781 243.44502 294.63281 243.19922 C 296.24947 242.44478 298.04557 241.63566 300.02148 240.77344 L 300.02148 228.27148 L 299.26758 228.27148 z M 188.0957 238.40234 L 188.0957 241.69922 L 191.48828 241.69922 L 191.48828 238.40234 L 188.0957 238.40234 z "
       id="text3336" />
  </g>
</svg>
